<svg id="Layer_1" data-name="Layer 1" xmlns="http://www.w3.org/2000/svg" viewBox="0 0 1236.87 240.21"><title>sanctlargedraft_1</title><path d="M425.94,418.87c0,20.18,84.78,18.67,84.78,79.73,0,39.86-26.24,60-86.79,60-61.06,0-82.26-14.13-86.8-15.64l15.64-41.38c20.19,5.55,40.37,10.59,58,10.59,21.7,0,26.74-3,26.74-9.08,0-16.65-84.78-20.18-84.78-79.73,0-37.85,30.79-59.55,80.24-59.55,29.27,0,48.95,5.55,74.18,15.14L487,421.39c-5.05-3-23.72-10.6-39.87-10.6C432.51,410.79,425.94,412.81,425.94,418.87Z" transform="translate(-337.13 -318.44)"/><path d="M593,363.86c23.72,0,39.87,8.58,53,23.22V370.42h71.15V550.58H646V535.44c-12.62,14.63-29.78,23.21-52,23.21-61.06,0-91.84-47.94-91.84-96.38C502.15,413.32,533.44,363.86,593,363.86Zm17.16,132.72c23.21,0,34.82-17.66,34.82-35.83,0-17.66-11.61-35.32-34.82-35.32-22.71,0-35.83,16.65-35.83,35.83C574.31,481.44,587.43,496.58,610.14,496.58Z" transform="translate(-337.13 -318.44)"/><path d="M802.91,550.58H729.74V370.42h73.17v14.13c13.12-14.13,30.79-20.69,49.46-20.69,54.5,0,83.77,33.81,83.77,89.83v96.89H863.47V453.69c0-21.7-15.64-32.81-30.78-32.81-14.64,0-28.77,9.59-29.78,29.78Z" transform="translate(-337.13 -318.44)"/><path d="M1045.14,497.08c12.62,0,21.7-5,30.28-10.59l40.37,41.88c-19.18,21.2-48.44,30.28-75.19,30.28-68.63,0-103.45-48.45-103.45-97.39,0-48.45,34.82-97.4,103.45-97.4,26.75,0,56.52,9.59,75.69,30.79l-41.88,41.88c-7.57-6.06-16.65-11.1-29.27-11.1-22.71,0-35.83,16.65-35.83,35.83S1022.43,497.08,1045.14,497.08Z" transform="translate(-337.13 -318.44)"/><path d="M1129.92,451.16V428.45h-22.71v-58h22.71v-52h72.17v52h33.8v58h-33.8v21.7c0,40.37,7.57,43.4,16.65,43.4,4,0,8.58-1.51,12.61-2.52l9.09,55.51c-21.2,7.57-34.32,10.59-46.43,10.59C1129.42,557.13,1129.92,507.18,1129.92,451.16Z" transform="translate(-337.13 -318.44)"/><path d="M1245,370.42h73.17v15.65c11.61-12.11,29.27-22.21,46.93-22.21,30.79,0,51,11.1,65.1,30.79,17.66-18.68,34.82-30.79,60-30.79,54.5,0,83.77,33.81,83.77,89.83v96.89h-72.67V453.69c0-21.7-12.61-32.81-27.75-32.81-14.64,0-27.25,9.59-27.25,32.81v96.89h-72.67V453.69c0-21.7-13.12-32.81-28.26-32.81-14.63,0-27.25,9.59-27.25,29.78v99.92H1245Z" transform="translate(-337.13 -318.44)"/></svg>