<svg data-name="Layer 1" xmlns="http://www.w3.org/2000/svg" viewBox="0 0 1236.87 240.21"><path d="M88.81 100.43c0 20.18 84.78 18.67 84.78 79.73 0 39.86-26.24 60-86.79 60-61.06 0-82.26-14.13-86.8-15.64l15.64-41.38c20.19 5.55 40.37 10.59 58 10.59 21.7 0 26.74-3 26.74-9.08 0-16.65-84.78-20.18-84.78-79.73 0-37.85 30.79-59.55 80.24-59.55 29.27 0 48.95 5.55 74.18 15.14l-20.15 42.44c-5.05-3-23.72-10.6-39.87-10.6-14.62 0-21.19 2.02-21.19 8.08z"/><path d="M255.87 45.42c23.72 0 39.87 8.58 53 23.22V51.98h71.15v180.16h-71.15V217c-12.62 14.63-29.78 23.21-52 23.21-61.06 0-91.84-47.94-91.84-96.38-.01-48.95 31.28-98.41 90.84-98.41zm17.16 132.72c23.21 0 34.82-17.66 34.82-35.83 0-17.66-11.61-35.32-34.82-35.32-22.71 0-35.83 16.65-35.83 35.83-.02 20.18 13.1 35.32 35.81 35.32zm192.75 54h-73.17V51.98h73.17v14.13c13.12-14.13 30.79-20.69 49.46-20.69 54.5 0 83.77 33.81 83.77 89.83v96.89h-72.67v-96.89c0-21.7-15.64-32.81-30.78-32.81-14.64 0-28.77 9.59-29.78 29.78zm242.23-53.5c12.62 0 21.7-5 30.28-10.59l40.37 41.88c-19.18 21.2-48.44 30.28-75.19 30.28-68.63 0-103.45-48.45-103.45-97.39 0-48.45 34.82-97.4 103.45-97.4 26.75 0 56.52 9.59 75.69 30.79l-41.88 41.88c-7.57-6.06-16.65-11.1-29.27-11.1-22.71 0-35.83 16.65-35.83 35.83s13.12 35.82 35.83 35.82z"/><path d="M792.79 132.72v-22.71h-22.71v-58h22.71v-52h72.17v52h33.8v58h-33.8v21.7c0 40.37 7.57 43.4 16.65 43.4 4 0 8.58-1.51 12.61-2.52l9.09 55.51c-21.2 7.57-34.32 10.59-46.43 10.59-64.59 0-64.09-49.95-64.09-105.97zm115.08-80.74h73.17v15.65c11.61-12.11 29.27-22.21 46.93-22.21 30.79 0 51 11.1 65.1 30.79 17.66-18.68 34.82-30.79 60-30.79 54.5 0 83.77 33.81 83.77 89.83v96.89h-72.67v-96.89c0-21.7-12.61-32.81-27.75-32.81-14.64 0-27.25 9.59-27.25 32.81v96.89h-72.67v-96.89c0-21.7-13.12-32.81-28.26-32.81-14.63 0-27.25 9.59-27.25 29.78v99.92h-73.12z"/></svg>